<svg viewBox="0 0 92.86 32.03" xmlns="http://www.w3.org/2000/svg"><g transform="translate(-3.63 -21.22)"><path d="m5.14 34.84h.09c.29 0 .39-.1.39-.44 0-2.06.07-4.22.07-6.34 0-1.38 0-2.77 0-4.07 0-.3-.09-.48-.4-.48h-.31a1.14 1.14 0 0 1 -1.26-1.12 1.09 1.09 0 0 1 1.06-1.09h.11 1.7 2.16a1.12 1.12 0 1 1 .05 2.23h-.34c-.34 0-.44.16-.44.46v4.2c0 2 0 4.11.06 6.19 0 .21.06.46.34.46h.35a1.14 1.14 0 0 1 1.23 1.16 1.1 1.1 0 0 1 -1.19 1.09h-.08c-.54 0-1.17 0-1.8 0s-1.52 0-2 0h-.12a1.12 1.12 0 1 1 0-2.23h.08z"/><path d="m14.51 34.84h.08c.29 0 .4-.1.4-.44 0-2.06.06-4.22.06-6.34 0-1.38 0-2.77 0-4.07 0-.3-.08-.48-.4-.48h-.32a1.13 1.13 0 0 1 -1.33-1.1 1.09 1.09 0 0 1 1.15-1.11h.1 1.71s1.59 0 2.16 0a1.12 1.12 0 1 1 0 2.23h-.38c-.33 0-.44.16-.44.46v4.2c0 2 0 4.11.06 6.19 0 .21.07.46.34.46h.36a1.14 1.14 0 0 1 1.32 1.16 1.1 1.1 0 0 1 -1.2 1.09h-.08c-.55 0-1.18 0-1.81 0s-1.51 0-2 0h-.08a1.12 1.12 0 1 1 0-2.23h.08z"/><path d="m26.37 23.53a1.15 1.15 0 0 1 -1.26-1.12 1.09 1.09 0 0 1 1.16-1.11h.1 1.64s1.55 0 2.12 0a1.12 1.12 0 0 1 1.24 1.11 1.13 1.13 0 0 1 -1.2 1.12h-.29c-.27 0-.44.06-.46.46v4.22s0 2.94 0 4.58v.14c0 2.88-2.06 4.35-4.54 4.35-1.36 0-2.75-.25-2.75-1.51a1.1 1.1 0 0 1 1.14-1.14 1.57 1.57 0 0 1 .54.09 3.9 3.9 0 0 0 1.11.17 2.07 2.07 0 0 0 2.19-2.25c0-1.7.06-3.26.06-4.77 0-1.3 0-2.58-.06-3.88 0-.27-.11-.48-.4-.48z"/><path d="m35.84 34.84h.09c.29 0 .4-.1.4-.44 0-2.06.06-4.22.06-6.34 0-1.38 0-2.77 0-4.07 0-.3-.09-.48-.4-.48h-.32a1.14 1.14 0 0 1 -1.26-1.12 1.09 1.09 0 0 1 1.16-1.11h.1 1.7s1.6 0 2.16 0a1.12 1.12 0 1 1 0 2.23h-.38c-.34 0-.44.16-.44.46v4.2c0 2 0 4.11.06 6.19 0 .21.06.46.34.46h.35a1.14 1.14 0 0 1 1.25 1.18 1.1 1.1 0 0 1 -1.19 1.09h-.09c-.54 0-1.17 0-1.8 0-.78 0-1.51 0-2 0h-.08a1.12 1.12 0 1 1 0-2.23h.08z"/><path d="m57.55 37.09h-.08c-.55 0-1.15 0-1.74 0s-1.41 0-1.91 0h-.09a.91.91 0 0 1 -1-.94 1 1 0 0 1 .65-1c.19-.06.35-.15.35-.25a.26.26 0 0 0 -.06-.15c-1.24-1.34-3-3.23-4-4.35a1.12 1.12 0 0 0 -.9-.44h-.53c-.17 0-.44.05-.44.4v2.52 1.66c0 .25.13.38.63.38a1.11 1.11 0 0 1 1.25 1.08 1.06 1.06 0 0 1 -1.15 1.05h-.09c-.54 0-1.13 0-1.7 0s-1.34 0-1.85 0h-.08a1.07 1.07 0 1 1 0-2.14h.27c.25 0 .44-.06.44-.42 0-1.91 0-4 0-6 0-1.64 0-3.23 0-4.57 0-.42-.14-.49-.46-.49h-.17a1.1 1.1 0 0 1 -1.26-1.09 1.09 1.09 0 0 1 1.16-1.07h.1 1.56s1.4 0 2 0 1.26.29 1.26 1.07a1.1 1.1 0 0 1 -1.2 1.09h-.27c-.25 0-.44.07-.44.42v1.26 2.19c0 .21.06.44.61.44a1.55 1.55 0 0 0 1.22-.61c3.13-3.42 3.17-3.57 3.17-3.66s-.06-.12-.19-.14a1 1 0 0 1 -.86-1 1.05 1.05 0 0 1 1.15-1h.1 1.53s1.39 0 2 0a1.12 1.12 0 0 1 1.28 1.11 1.06 1.06 0 0 1 -1.17 1.07h-.21a1 1 0 0 0 -.72.26c-1.16 1.23-3.17 3.23-4.45 4.56-.15.17-.26.28-.26.4s.07.19.17.32c1.51 1.53 4.6 4.51 5.71 5.63a1.1 1.1 0 0 0 .61.23 1.12 1.12 0 0 1 1.26 1.09 1.1 1.1 0 0 1 -1.2 1.09z"/><path d="m72.57 35a.33.33 0 0 0 .31-.34s-.54-1.84-.79-2.6a.36.36 0 0 0 -.34-.29h-4.81c-.27 0-.35.08-.44.35l-.71 2.46a.48.48 0 0 0 .48.42 1.09 1.09 0 0 1 1.26 1.07 1.05 1.05 0 0 1 -1.15 1h-.09c-.52 0-1.07 0-1.61 0s-1.29 0-1.79 0h-.08a1.08 1.08 0 0 1 -1.16-1.07 1.05 1.05 0 0 1 1.14-1h.1c.34 0 .55-.36.63-.63 1.22-3.8 3.17-9.28 4-11.76a1.83 1.83 0 0 1 1.72-1.38 2 2 0 0 1 1.83 1.45c1.11 3.19 3.17 9 4.2 11.69.06.19.33.63.67.63a1.1 1.1 0 0 1 1.24 1.07 1.07 1.07 0 0 1 -1.18 1h-.08c-.53 0-1.07 0-1.62 0s-1.28 0-1.78 0a1.09 1.09 0 0 1 -1.22-1 1.07 1.07 0 0 1 1.14-1.07zm-1.49-5.25c.13 0 .19 0 .19-.1s-1.45-4.58-1.62-5.11c-.12-.37-.23-.54-.33-.54s-.24.21-.38.63c-.48 1.3-1.6 5-1.6 5s0 .08.21.12z"/><path d="m91.18 36.19c-1.47-2.35-5.42-9.58-6.56-11.49-.16-.29-.29-.42-.37-.42s-.17.49-.17 1.09c0 1.66 0 6.22.1 9a.46.46 0 0 0 .51.53 1.1 1.1 0 1 1 0 2.18h-.08c-.55 0-1.09 0-1.64 0s-1.28 0-1.78 0a1.14 1.14 0 0 1 -1.19-1.08 1.08 1.08 0 0 1 1.15-1.09h.11.2c.24 0 .42-.09.42-.49 0-1.74 0-3.59 0-5.39s0-3.51 0-5c0-.44 0-.54-.39-.54s-1.39-.05-1.39-1.12a1.09 1.09 0 0 1 1.16-1.11h.1.69 1a3.47 3.47 0 0 1 3.08 1.78c1.56 2.63 4.54 8.19 6 10.36.12.18.25.31.36.31s.16-.21.16-1c0-1.59 0-6-.1-8.67 0-.5-.13-.58-.53-.58h-.19a1.15 1.15 0 0 1 -1.26-1.1 1.09 1.09 0 0 1 1.16-1.09h.1 1.52s1.36 0 1.93 0 1.26.21 1.26 1.07a1.13 1.13 0 0 1 -1.22 1.12h-.06c-.38.06-.4.25-.4.46v4.2c0 2.56 0 5.18.06 7a1.9 1.9 0 0 1 -1.89 2 2.1 2.1 0 0 1 -1.85-.93z"/><path d="m20.55 52.17c.43-.16.88-.33 1.16-.45l-.27-.3a.17.17 0 0 1 -.06-.11.19.19 0 0 1 .19-.16 2.31 2.31 0 0 1 .88 1 .2.2 0 0 1 -.2.2c-.09 0-.09 0-.33-.34-.54.24-2.1.88-2.23.88a.2.2 0 0 1 -.18-.22.15.15 0 0 1 .1-.15l.57-.19v-1c0-.92 0-2 0-2.25 0-.57.52-.59.87-.59v-.59c0-.11.1-.17.21-.17s.21.06.21.17v.6c.41 0 .87 0 .89.59v.82s0 .33 0 .45a.57.57 0 0 1 -.61.56c-.17 0-.45 0-.74 0h-.48zm1-5.14c-.07-.09-.13-.13-.2-.13a.26.26 0 0 0 -.2.14 8.58 8.58 0 0 1 -1.07 1.41.24.24 0 0 1 -.18.08.21.21 0 0 1 -.23-.19.24.24 0 0 1 .09-.17 7.71 7.71 0 0 0 1.09-1.37.57.57 0 0 1 .48-.29.67.67 0 0 1 .52.31c.18.25.48.64.75.94a.2.2 0 0 1 .06.14.24.24 0 0 1 -.23.22c-.15 0-.19 0-.91-1.12zm.45 2.45c0-.13 0-.26 0-.37 0-.35-.21-.35-.72-.35s-.7 0-.72.36v.36zm-1.45.31v.77h1.13c.32 0 .33-.24.33-.77zm3-.83a6.54 6.54 0 0 1 -1 3.95.26.26 0 0 1 -.19.1.22.22 0 0 1 -.21-.21.18.18 0 0 1 .05-.12 6.24 6.24 0 0 0 1-4c0-.39 0-.78 0-1.14a.69.69 0 0 1 .75-.71h1.14 1.18a.19.19 0 0 1 .19.2.17.17 0 0 1 -.18.18h-2.28c-.32 0-.42.19-.42.45v.91h1.94c.41 0 .59.18.59.52a5.4 5.4 0 0 1 -.9 2.34 3.84 3.84 0 0 0 1.37 1.14.24.24 0 0 1 .13.21.23.23 0 0 1 -.22.23 3.22 3.22 0 0 1 -1.51-1.26 3.79 3.79 0 0 1 -1.74 1.39.21.21 0 0 1 -.24-.14.2.2 0 0 1 .12-.18 4.51 4.51 0 0 0 1.59-1.34 5.16 5.16 0 0 1 -.8-2.49zm.72 0a5.07 5.07 0 0 0 .68 2.16 4.48 4.48 0 0 0 .72-1.93c0-.16-.08-.23-.31-.23z"/><path d="m29.14 52.72a.19.19 0 0 1 -.2-.2.2.2 0 0 1 .2-.21h2.53v-3h-2.85a.19.19 0 0 1 -.19-.21.19.19 0 0 1 .19-.2h2.85v-2.19a.22.22 0 0 1 .22-.22.22.22 0 0 1 .23.22v2.17h2.88a.19.19 0 0 1 .19.2.19.19 0 0 1 -.19.21h-2.89v3h2.53a.19.19 0 0 1 .18.21.18.18 0 0 1 -.18.2z"/><path d="m40.42 46.76c0-.14.11-.2.23-.2a.2.2 0 0 1 .22.2v5.66h1.49s.72-.19.74-.64 0-.89 0-1.46 0-1.32 0-1.73a.19.19 0 0 1 .21-.19.22.22 0 0 1 .24.2v1.55s0 1.28 0 1.7c0 .63-.43.94-1.07 1s-1.24 0-1.9 0-1.31 0-1.81 0a.89.89 0 0 1 -1-.95c0-.41 0-1 0-1.62s0-1.23 0-1.67a.21.21 0 0 1 .22-.21.2.2 0 0 1 .22.19v1.34 1.84s.18.65.68.67.95 0 1.51 0z"/><path d="m49.22 49.7a.16.16 0 0 1 -.17-.17.15.15 0 0 1 .17-.16h1.07v-.91h-1.23a.17.17 0 0 1 0-.34h1.23v-.92c-.11.1-.64.56-.8.56a.21.21 0 0 1 -.2-.2.18.18 0 0 1 .1-.16 4.39 4.39 0 0 0 1.22-1.09.17.17 0 0 1 .14-.07.21.21 0 0 1 .21.21c0 .06 0 .08-.33.42h4.13a.16.16 0 0 1 .17.16.16.16 0 0 1 -.17.17h-.62v.92h1.2a.17.17 0 0 1 0 .34h-1.2v.91h1a.15.15 0 0 1 .17.16.16.16 0 0 1 -.17.17zm-.07 2.15a.18.18 0 0 1 -.18-.17.22.22 0 0 1 .11-.18 4.25 4.25 0 0 0 1.47-1.62.2.2 0 0 1 .38.08s0 .12-.24.42h.76c.34 0 .51.16.51.39a3.4 3.4 0 0 1 -2.7 2.4h-.06a.19.19 0 0 1 -.2-.17.18.18 0 0 1 .15-.18 3.66 3.66 0 0 0 1.65-.82 6 6 0 0 0 -.65-.34.15.15 0 0 1 -.11-.15.21.21 0 0 1 .2-.19 3.84 3.84 0 0 1 .81.41 2 2 0 0 0 .49-.87c0-.09-.06-.13-.18-.13h-.91a3.2 3.2 0 0 1 -1.3 1.12zm2.3-4.65h-.81v.92h.81zm0 1.26h-.81v.91h.81zm2.72 3.77v.77a.19.19 0 0 1 -.2.19.18.18 0 0 1 -.19-.19v-.81h-1.84a.17.17 0 0 1 -.18-.18.17.17 0 0 1 .18-.17h.46v-.72a.59.59 0 0 1 .68-.61h.7v-.51a.18.18 0 0 1 .19-.18.18.18 0 0 1 .2.18v.59h.83a.17.17 0 1 1 0 .34h-.8v1h1.1a.17.17 0 0 1 .18.17.17.17 0 0 1 -.18.18zm-1.58-5h-.79v.92h.79zm0 1.26h-.79v.91h.79zm1.19 2.43h-.65a.32.32 0 0 0 -.35.35v.64h1zm0-3.69h-.83v.92h.83zm0 1.26h-.83v.91h.83z"/><path d="m61.82 49.91a4.9 4.9 0 0 1 .06.77c0 2.3-1.27 2.41-1.83 2.41a2.79 2.79 0 0 1 -.68-.08.23.23 0 0 1 -.22-.23.22.22 0 0 1 .22-.23h.08a2 2 0 0 0 .64.11c.34 0 1.35 0 1.35-2.06a3.82 3.82 0 0 0 0-.68h-3.64a.19.19 0 0 1 -.19-.21.18.18 0 0 1 .18-.19h3.51a1.51 1.51 0 0 0 -.81-1.05.17.17 0 0 1 -.12-.16.24.24 0 0 1 .24-.2.93.93 0 0 1 .51.28s1.29-.91 1.29-1.13-.09-.13-.75-.13h-2.65a.18.18 0 0 1 -.19-.19.19.19 0 0 1 .2-.2h3.34c.39 0 .57.21.57.43a.54.54 0 0 1 -.16.36 10.5 10.5 0 0 1 -1.38 1.12 2.76 2.76 0 0 1 .35.84h2.44a.18.18 0 0 1 .18.2.19.19 0 0 1 -.18.21z"/><path d="m66.85 47.54a.18.18 0 0 1 -.19-.19.18.18 0 0 1 .19-.18h2.71v-.7a.22.22 0 0 1 .23-.21.21.21 0 0 1 .23.21v.7h2.71a.18.18 0 0 1 .18.19.17.17 0 0 1 -.18.18zm0 3.2c0-.46.29-.77.86-.78h4.06a.79.79 0 0 1 .85.72v1.32.43c0 .37-.17.73-1 .73s-.75-.1-.75-.25a.2.2 0 0 1 .2-.21 3.69 3.69 0 0 0 .6.07c.28 0 .44-.1.44-.4v-1.61c0-.28-.19-.44-.52-.45h-2-1.89a.45.45 0 0 0 -.49.48v1.11s0 .83 0 1.15a.2.2 0 0 1 -.22.19.2.2 0 0 1 -.22-.2zm2.9-1.28c-1.7 0-1.84 0-1.84-.66 0-.45 0-.74.69-.75h1.28c1.6 0 1.72 0 1.72.71s-.05.7-1.81.7zm0 2.85c-1.33 0-1.5-.06-1.5-.71 0-.35 0-.69.6-.72h1.82c.59 0 .6.37.6.67.01.75-.2.76-1.51.76zm1.48-3.56c0-.28 0-.38-.36-.38h-2.15c-.32 0-.36.1-.36.37s0 .4 1.36.4 1.5 0 1.51-.22a.86.86 0 0 0 .01-.17zm-1.47 3.25c1.12 0 1.12 0 1.12-.41v-.15c0-.23 0-.23-1.24-.23h-.64c-.3 0-.31.12-.31.51s.12.28 1.07.28z"/><path d="m79 50.76h-.92c-.56 0-.82-.3-.83-.68v-.53c0-.29 0-.57 0-.83a.7.7 0 0 1 .75-.72h.65a5.49 5.49 0 0 0 .19-.78.23.23 0 0 1 .16-.19h-2.06a.53.53 0 0 0 -.57.58v.69a8.68 8.68 0 0 1 -.83 4.4.28.28 0 0 1 -.23.15.22.22 0 0 1 -.23-.21.3.3 0 0 1 0-.11 7.07 7.07 0 0 0 .92-3.88c0-.37 0-.73 0-1.07a.84.84 0 0 1 .92-.87h2.47 2.12a.19.19 0 1 1 0 .38h-2.38a.21.21 0 0 1 .17.2 3.25 3.25 0 0 1 -.23.77h1.16a.71.71 0 0 1 .77.6v.77s0 .44 0 .64a.71.71 0 0 1 -.77.69h-.86v1.07.53c0 .39-.11.77-.85.77s-.76-.14-.76-.25a.19.19 0 0 1 .19-.21 3 3 0 0 0 .53.07c.27 0 .43-.11.43-.46zm-2.43 2a.21.21 0 0 1 -.22-.21.21.21 0 0 1 .13-.19 4.33 4.33 0 0 0 1.31-1 .16.16 0 0 1 .14-.06.2.2 0 0 1 .19.21c-.04.28-1.39 1.25-1.59 1.25zm4.09-3.56c0-.55 0-.81-.5-.83h-.91-1.13c-.47 0-.49.34-.49.83zm-3 .33c0 .68 0 .87.5.87h1 1c.48 0 .48-.27.48-.87zm3.85 3a4.58 4.58 0 0 0 -1.32-.91.19.19 0 0 1 -.12-.16.21.21 0 0 1 .21-.2c.19 0 1.62.76 1.62 1.11a.24.24 0 0 1 -.23.24.27.27 0 0 1 -.23-.03z"/></g></svg>